<?xml version="1.0" encoding="utf-8"?>
<!-- Generator: Adobe Illustrator 25.0.0, SVG Export Plug-In . SVG Version: 6.00 Build 0)  -->
<svg version="1.1" id="Layer_1" xmlns="http://www.w3.org/2000/svg" xmlns:xlink="http://www.w3.org/1999/xlink" x="0px" y="0px"
	 viewBox="0 0 512 512" style="enable-background:new 0 0 512 512;" xml:space="preserve">
<style type="text/css">
	.st0{fill:#A9A5AF;}
</style>
<path class="st0" d="M392,512H120C53.8,512,0,458.2,0,392V120C0,53.8,53.8,0,120,0h272c66.2,0,120,53.8,120,120v272
	C512,458.2,458.2,512,392,512z M120,40c-44.1,0-80,35.9-80,80v272c0,44.1,35.9,80,80,80h272c44.1,0,80-35.9,80-80V120
	c0-44.1-35.9-80-80-80H120z M332,190c13.8,0,25-11.2,25-25c-1.3-33.2-48.7-33.2-50,0C307,178.8,318.2,190,332,190z M428.2,279.9
	c-8.3-7.3-21-6.4-28.2,1.9l-33.8,38.8c-11.9,12.9-23.1,13.8-37.2,2.9c0,0-93-88.1-93.5-88.5c-26.8-21.2-64.8-20-90.2,2.9
	c-0.4,0.4-58.7,62.3-58.7,62.3c-7.6,8-7.2,20.7,0.9,28.3c8,7.6,20.7,7.2,28.3-0.9l56.9-60.5c10.7-9.2,26.2-9.7,37.5-1.2
	c0,0,93,88,93.4,88.4c13.9,11,29.8,16.6,44.6,16.6c11.9-0.4,30.6-4.7,47.8-23.6c0.1-0.1,0.2-0.2,0.3-0.3l34-39
	C437.3,299.8,436.5,287.2,428.2,279.9L428.2,279.9z"/>
</svg>
