<?xml version="1.0" encoding="utf-8"?>
<!-- Generator: Adobe Illustrator 25.0.0, SVG Export Plug-In . SVG Version: 6.00 Build 0)  -->
<svg version="1.1" id="Layer_1" xmlns="http://www.w3.org/2000/svg" xmlns:xlink="http://www.w3.org/1999/xlink" x="0px" y="0px"
	 viewBox="0 0 512 512" style="enable-background:new 0 0 512 512;" xml:space="preserve">
<style type="text/css">
	.st0{fill:#A9A5AF;}
</style>
<path class="st0" d="M392,512H120C53.8,512,0,458.1,0,392V223.7c0-37.2,17.7-72.9,47.2-95.4l136-103.7c42.8-32.7,102.7-32.7,145.5,0
	L372,57.5V32c1.1-26.5,39-26.5,40,0v65.9c0,7.6-4.3,14.5-11.1,17.9c-6.8,3.4-15,2.6-21-2l-75.4-57.4c-28.6-21.8-68.5-21.8-97,0
	l-136,103.7c-19.7,15-31.5,38.8-31.5,63.6V392c0,44.1,35.9,80,80,80h272c44.1,0,80-35.9,80-80V223.7c0-25.1-11.6-49-31.1-63.8
	c-8.8-6.7-10.5-19.2-3.8-28c6.7-8.8,19.2-10.5,28-3.8c29.3,22.4,46.9,58.1,46.9,95.6V392C512,458.1,458.2,512,392,512z M216,231
	c-13.8,0-25,11.2-25,25c1.3,33.2,48.7,33.1,50,0C241,242.2,229.8,231,216,231z M321,256c-1.3,33.2-48.7,33.1-50,0
	C272.3,222.8,319.7,222.8,321,256z M241,336c-1.3,33.2-48.7,33.1-50,0C192.3,302.8,239.7,302.8,241,336z M321,336
	c-1.3,33.2-48.7,33.1-50,0C272.3,302.8,319.7,302.8,321,336z"/>
</svg>
