<?xml version="1.0" encoding="utf-8"?>
<!-- Generator: Adobe Illustrator 25.0.0, SVG Export Plug-In . SVG Version: 6.00 Build 0)  -->
<svg version="1.1" id="Capa_1" xmlns="http://www.w3.org/2000/svg" xmlns:xlink="http://www.w3.org/1999/xlink" x="0px" y="0px"
	 viewBox="0 0 1030.8 647.7" style="enable-background:new 0 0 1030.8 647.7;" xml:space="preserve">
<style type="text/css">
	.st0{fill:#FFFFFF;}
</style>
<g>
	<g>
		<path class="st0" d="M15.9,231.5l160,144c19.7,17.7,50.1,16.2,67.8-3.6c17.7-19.7,16.1-50-3.6-67.8l-67-60.3H464
			c26.5,0,48-21.5,48-48s-21.5-48-48-48H173.1l67.1-60.3c19.7-17.8,21.3-48.1,3.6-67.8C234.2,9.2,221.1,3.8,208,3.8
			c-11.5,0-22.9,4.1-32.1,12.3l-160,144C5.8,169.2,0,182.2,0,195.8C0,209.4,5.8,222.4,15.9,231.5z"/>
	</g>
</g>
<g>
	<g>
		<path class="st0" d="M1015,420L855,276c-19.7-17.7-50.1-16.2-67.8,3.6c-17.7,19.7-16.1,50,3.6,67.8l67,60.3H566.8
			c-26.5,0-48,21.5-48,48s21.5,48,48,48h290.9L790.7,564c-19.7,17.8-21.3,48.1-3.6,67.8c9.5,10.5,22.6,15.9,35.7,15.9
			c11.5,0,22.9-4.1,32.1-12.3l160-144c10.1-9.1,15.9-22.1,15.9-35.7S1025.1,429.1,1015,420z"/>
	</g>
</g>
</svg>
