<svg xmlns="http://www.w3.org/2000/svg" viewBox="0 0 2232.29 1716.21"><defs><style>.cls-1{isolation:isolate;}.cls-2{fill:#e6f6ff;}.cls-3{fill:#fff;}.cls-4{fill:#0f4599;}.cls-5{fill:#bae2ff;}.cls-6{fill:#1480cc;}.cls-7{fill:#ebf3ff;}.cls-8{fill:#3397ff;}.cls-9{fill:#e3eeff;}.cls-10{fill:#cce5ff;}.cls-11{fill:#66b8ff;}.cls-12{opacity:0.5;mix-blend-mode:darken;}.cls-13{fill:#61b3f2;}.cls-14{fill:#2e97e6;}.cls-15{fill:#0e0e0e;}.cls-16{fill:#2475b3;}.cls-17{fill:#3f9ee6;}.cls-18{fill:#1a5380;}.cls-19{fill:#e6e6e6;}.cls-20{fill:#999;}.cls-21{fill:gray;}.cls-22{fill:#666;}.cls-23{fill:#f7af0c;}.cls-24{fill:#cc840a;}.cls-25{fill:#803d00;}.cls-26{fill:#e6950b;}.cls-27{fill:#f7e4ad;}.cls-28{fill:#4582e6;}.cls-29{fill:#3d73cc;}.cls-30{fill:#002e73;}.cls-31{fill:#231f20;}.cls-32{fill:#f7a594;}.cls-33{fill:#e6836f;}.cls-34{fill:#73382a;}.cls-35{fill:#d9ffff;}.cls-36{fill:#007880;}.cls-37{fill:#008f99;}.cls-38{fill:#b77df1;}.cls-39{fill:#e75cb4;}</style></defs><g class="cls-1"><g id="Layer_2" data-name="Layer 2"><g id="shadow"><rect class="cls-2" x="1392.32" y="42" width="839.96" height="785.45" transform="translate(3624.61 869.45) rotate(180)"/><rect class="cls-2" y="929.65" width="565.56" height="508.24" transform="translate(565.56 2367.54) rotate(180)"/></g><g id="folder"><path class="cls-3" d="M1283.64,532.08V461.54a58,58,0,0,1,58-58H1959.1a58,58,0,0,1,58,58v1247H419.9V532.08Z"/><path class="cls-4" d="M1278.51,532.08V461.54a58,58,0,0,1,58-58H1954a58,58,0,0,1,58,58v1247H414.76V532.08Z"/><polygon class="cls-5" points="1958.47 580.83 1958.47 1708.57 478.89 1708.57 478.89 575.29 1958.47 580.83"/><polygon class="cls-6" points="1877.24 580.83 1877.24 1708.57 397.66 1708.57 397.66 575.29 1877.24 580.83"/><path class="cls-3" d="M338,532.09H1799.73c30,0,52.09,20.3,56.41,48.38v1128.1H260.82V609.09C260.46,568.57,297,532.09,338,532.09Z"/><rect class="cls-7" x="875.09" y="302.8" width="854.32" height="649.26" transform="translate(2602.74 1258.51) rotate(-179.84)"/><rect class="cls-8" x="897.39" y="323.99" width="810.62" height="596.88" transform="translate(2603.66 1248.5) rotate(-179.84)"/><polygon class="cls-9" points="1638.85 873.9 1117.92 872.44 1402.74 599.19 1638.85 873.9"/><polygon class="cls-9" points="1401.98 873.24 964.28 872.01 1201.79 646.17 1401.98 873.24"/><circle class="cls-9" cx="1240.05" cy="538.4" r="60.33" transform="translate(-17.51 1034.54) rotate(-45)"/><rect class="cls-7" x="761.49" y="185.59" width="792.03" height="688.78" transform="translate(2313.3 1063.66) rotate(-179.82)"/><rect class="cls-8" x="784.44" y="208.06" width="747.05" height="633.2" transform="translate(2314.23 1053.06) rotate(-179.82)"/><rect class="cls-10" x="1161.61" y="296.68" width="297.52" height="26.14"/><rect class="cls-10" x="853.82" y="367.27" width="605.32" height="26.14" transform="translate(2312.95 760.68) rotate(180)"/><rect class="cls-10" x="853.82" y="439.14" width="605.32" height="26.14" transform="translate(2312.95 904.41) rotate(180)"/><path class="cls-11" d="M331,532.09H1792.69c30,0,52.1,20.3,56.41,48.38V1712.61H253.78V609.09C253.42,568.57,290,532.09,331,532.09Z"/><rect class="cls-3" x="1856.14" y="1702.08" width="160.97" height="6.49" transform="translate(3873.24 3410.64) rotate(180)"/><polygon class="cls-12" points="2017.11 1009.24 1958.47 1047.49 1881 1047.49 1856.14 1066.62 1856.14 1048.45 260.82 1048.45 260.82 1009.24 2017.11 1009.24"/><rect class="cls-13" x="228.32" y="822.07" width="1811.45" height="204.67" transform="translate(2268.08 1848.81) rotate(180)"/><rect class="cls-14" x="228.32" y="822.07" width="1648.38" height="204.67" transform="translate(2105.01 1848.81) rotate(180)"/><polygon class="cls-15" points="1420.99 822.07 1420.99 1026.67 1277.77 1026.67 1378.19 822.07 1420.99 822.07"/><path class="cls-16" d="M1371.49,924.18c0,28.31,5,53.94,13.27,72.37,8.11,18.88,19.39,30.12,31.86,30.12h38V822.14h-38C1391.68,822.14,1371.49,868,1371.49,924.18Zm36,33.71c-7.12-2.25-12.67-16.17-12.67-33.71,0-17.08,5.55-31,12.67-33.27,7.12,2.25,12.67,16.19,12.67,33.27C1420.19,941.72,1414.64,955.64,1407.52,957.89Z"/><path class="cls-17" d="M1390.87,924.18c0,28.31,5.18,53.94,13.87,72.37,8.5,18.88,20.3,30.12,33.35,30.12h16.57V822.14h-16.57C1412,822.14,1390.87,868,1390.87,924.18Zm18.23,0c0-17.08,10.77-31,18.22-33.27,7.45,2.25,13.25,16.19,13.25,33.27,0,17.54-5.8,31.46-13.25,33.71C1419.87,955.64,1409.1,941.72,1409.1,924.18Z"/><path class="cls-16" d="M1389.72,924.18c0,28.31,4.94,53.94,13.26,72.37,8.11,18.88,19.4,30.12,31.86,30.12h38V822.14h-38C1409.91,822.14,1389.72,868,1389.72,924.18Zm36,33.71c-7.12-2.25-12.67-16.17-12.67-33.71,0-17.08,5.55-31,12.67-33.27,7.13,2.25,12.67,16.19,12.67,33.27C1438.41,941.72,1432.87,955.64,1425.74,957.89Z"/><path class="cls-13" d="M1409.09,924.18c0,28.31,5.18,53.94,13.88,72.37,8.49,18.88,20.29,30.12,33.34,30.12h16.57V822.14h-16.57C1430.22,822.14,1409.09,868,1409.09,924.18Zm18.23,0c0-17.08,5.8-31,13.25-33.27,7.46,2.25,13.26,16.19,13.26,33.27,0,17.54-5.8,31.46-13.26,33.71C1433.12,955.64,1427.32,941.72,1427.32,924.18Z"/><path class="cls-18" d="M1434.66,1028c-1.61,0-10.89-.43-20.68-9.84-11.13-10.68-24.39-34.8-24.39-89.08,0-51.7,12.1-78.32,22.24-91.54,11.17-14.57,22.32-16.63,22.79-16.72a1.33,1.33,0,0,1,.45,2.63h0c-.1,0-10.77,2.06-21.31,15.94-9.81,12.92-21.5,39-21.5,89.69,0,53.22,12.76,76.72,23.46,87.07,9.73,9.39,19,9.2,19.07,9.19a1.33,1.33,0,0,1,.11,2.66Z"/><path class="cls-19" d="M1440.56,955.15c1.8.45,3.13.9,4.93,1.35-.45.45-.45.45,0,.45,72.38,21.58,125.87,88.1,125.87,167.67v170.86h57.54V1124.62c0-110.58-77.77-203.18-181.61-226.56a36.86,36.86,0,0,0-6.73-1.79C1423.92,892.67,1422.57,952.46,1440.56,955.15Z"/><path class="cls-19" d="M1372.45,893.21v57.22c-74.17,9.55-134.06,64.58-150,136.48a19.1,19.1,0,0,0-.9,4.49,104.93,104.93,0,0,0-1.8,11.69,173.38,173.38,0,0,0-1.35,21.57v170.87h-57.09V1124.66C1161.33,1003.82,1254.2,904.81,1372.45,893.21Z"/><path class="cls-20" d="M1439.23,938.27c134.92,23.66,152.29,170.56,152.29,170.56v186.7h-20.24V1124.66c0-81.24-55.7-149.15-130.68-169.39-5.73-1.86-9.3-18.64-9.3-18.64S1434.84,937.43,1439.23,938.27Z"/><path class="cls-21" d="M1372.45,938.27v12.16c-74.17,9.55-134.06,64.58-150,136.48C1225.69,1044.94,1260.5,953.22,1372.45,938.27Z"/><path class="cls-22" d="M1440.56,955.15c1.8.45,3.13.9,4.93,1.35-1.35-3.6-8.66-11.77-9.56-28.84-.9-17.54,5.06-29.4,11.36-29.6a36.86,36.86,0,0,0-6.73-1.79C1423.92,892.67,1422.57,952.46,1440.56,955.15Z"/><rect class="cls-23" x="1111.43" y="1248.9" width="566.84" height="463.36"/><path class="cls-24" d="M1403.38,1363.36a21.91,21.91,0,0,0-5.4-.45,70.15,70.15,0,0,0-70.12,70.33,71.27,71.27,0,0,0,41.36,64.44V1617c0,15.89,13,29,28.76,29a15,15,0,0,0,4.5-.46h1.34a29.16,29.16,0,0,0,22.94-28.59V1497.68a70.79,70.79,0,0,0,41.35-64.44A69.72,69.72,0,0,0,1403.38,1363.36Z"/><path class="cls-25" d="M1403.38,1363.36c-36.41,2.26-65.19,32.67-65.19,69.88a71.28,71.28,0,0,0,41.37,64.44V1617a29.15,29.15,0,0,0,22.92,28.59h1.34a29.16,29.16,0,0,0,22.94-28.59V1497.68a70.79,70.79,0,0,0,41.35-64.44A69.72,69.72,0,0,0,1403.38,1363.36Z"/><path class="cls-26" d="M1291.3,1712.26H1111.43V1248.9h49.9S1148.08,1590.79,1291.3,1712.26Z"/><path class="cls-27" d="M1556.57,1712.26c43-91.93,35-339.06,35-463.36h57.09v463.36Z"/></g><g id="super_hero" data-name="super hero"><path class="cls-28" d="M971.92,1282.63s-58.16-1.88-115.46.86c-59.53,2.9-118.21,10.77-109.83,31.3a21.75,21.75,0,0,1,1.2,13.52c-12,54.91-229.05,96-276.94,62.26-35.76-25.15-134.29,7.18-174.66,24.63-76.88-514.63-79-1040.73-10.94-1077.33,68.08-36.44,256.76,9.75,256.76,9.75s95.62,25.32,134.62,286.87C715.84,895.86,971.92,1282.63,971.92,1282.63Z"/><path class="cls-29" d="M746.63,1314.79a21.75,21.75,0,0,1,1.2,13.52C689,1148.86,550.43,636.19,600.72,776c48.24,134.8,199.63,407.81,255.74,507.54C796.93,1286.39,738.25,1294.26,746.63,1314.79Z"/><path class="cls-30" d="M278.18,473.94c-55.94,68.42-66.2,85-118.55,88.61,17.62,11.12,28.06,26.17,35.24,42.42H195c15.4,33.7,17.62,73,44.48,95.11l-32.16,31.65-8.21,8.21s-1.2-1-3.25-2.91c-14-13-69.8-65.52-103-113.76-19.5-28-31.3-54.56-23.09-71.16,13.34-48.24,47.55-147.28,134.62-176.87,57.13-62.1,113.07-28.74,132.91-2.91C363.88,406.89,337.19,480.78,278.18,473.94Z"/><path class="cls-31" d="M239.52,700.08l-32.16,31.65L195.9,737c-13.17-12.31-63.47-59.53-97-105.37-2.06-2.74-4.11-5.65-6-8.39,16.59-.17,70-1.53,102-18.3H195a92.73,92.73,0,0,1,3.59,8.72C211,645.17,214.88,679.9,239.52,700.08Z"/><path class="cls-11" d="M198.63,613.69c-35.41,21.56-75.95,20.88-99.72,18-2.06-2.74-4.11-5.65-6-8.39,16.59-.17,70-1.53,102-18.3H195A92.73,92.73,0,0,1,198.63,613.69Z"/><path class="cls-31" d="M215.42,670.88s36.64,3.4,47.72,13c9.27,8.06,3.61,18.12,3.61,18.12,19.72,11.09,0,54.09-34.43,64.71s-57-54.24-57-54.24S180.58,673.19,215.42,670.88Z"/><path class="cls-31" d="M677.69,1714.54H553.39a14.79,14.79,0,0,1-5.57-5c-6.4-92.45-15.62-137-15.62-137l86.57-3.53,19.6,68.77C667.37,1657.67,701.94,1700.19,677.69,1714.54Z"/><path class="cls-31" d="M544,1716.21H691.33c3.74,0,2.49-20.49-1.25-20.49l-146.48.82C539.75,1696.54,540.13,1716.21,544,1716.21Z"/><path class="cls-30" d="M492.62,730c20.11,54.12,105.7,302.06,81.26,480.56,33.61,118.71,23.06,219.26,53.37,392.62L539,1607.78c-35.86-211.53-75.32-171.16-86.74-380.64-72.69-164.25-110.4-319.85-129.74-480.05C303.74,626.32,452,562.9,492.62,730Z"/><path class="cls-31" d="M539.94,1616.79s-6.6-63-48.11-183.2c-12.88-36.95-19.87-61.42-23.5-76.47-3.63-15.22-4.08-21-4.08-21,21.88-25.32,49.65-63.46,74.31-109.31,27,42.26,59.12,84.51,59.12,84.51s.82,9.92,2.28,26.17c6.51,68.08,24,248,34.56,286.18C647.56,1670.84,565.54,1697.7,539.94,1616.79Z"/><path class="cls-11" d="M600,1337.45c-14.09-15.74-39.46-45.33-60.68-77.66-9.62,34.89-50,77.15-70.95,97.33-3.63-15.22-4.08-21-4.08-21,21.88-25.32,49.65-63.46,74.31-109.31,27,42.26,59.12,84.51,59.12,84.51S598.5,1321.2,600,1337.45Z"/><path class="cls-30" d="M388.28,752.89C382.05,988.6,340,1188.81,340,1188.81c17.79,160.81-22.67,190.79-40.94,420.85l-79.74-1.06c-.2-93.38-5.62-209-11.29-396.25-50.2-195.68-26-339.8-7.3-456.77C220.74,622.71,401,578.74,388.28,752.89Z"/><path class="cls-31" d="M299.1,1609.66c7.11,38.09,12.21,67.81,9.23,102.28l-193.12,3.76s-19.11-18.62,4.92-46.54,69.67-11.77,99.23-60.56Z"/><path class="cls-31" d="M106.44,1716.21H311.61c3.74,0,2.76-20.49-1-20.49l-204.3.82C102.48,1696.54,102.6,1716.21,106.44,1716.21Z"/><path class="cls-31" d="M337.45,1349.59s-1.38,6.85-3.73,18.48C324,1418.87,298,1560.68,301,1624.49c-36.25,43.28-83.37-4.79-83.37-4.79l-19-350.5-1.3-23.61A436.71,436.71,0,0,0,337.45,1349.59Z"/><path class="cls-11" d="M337.45,1349.59s-1.38,6.85-3.73,18.48c-70.43-20.53-113.8-68.77-135.08-98.87l-1.3-23.61A436.71,436.71,0,0,0,337.45,1349.59Z"/><path class="cls-30" d="M206.71,741.75c0,40.76,289.47,29,289.47-11.8-1-67.25,8.3-122.59,20.95-168.34,86.79-85,81.61-151,59.62-186.83-37.92-61.74-229.49-58.24-298.46-31.7C250.9,353.62,214.12,396.55,202.36,465c-6.05,35.19,19.86,76.17,24,104.62C235.79,635.43,208.64,732.3,206.71,741.75Z"/><path class="cls-32" d="M387.16,371.09c14.28-11.35,71.25-28.85,86.4-41.26l-3.42-98.89-56-5.46a166.5,166.5,0,0,0-46.47,10.76l-12.61,65.12-2.78,14.12C345.93,329.38,358.5,346.14,387.16,371.09Z"/><path class="cls-33" d="M451.29,253.33c-8.78,13.52-45.57,48.15-96.24,48L366,245Z"/><path class="cls-32" d="M327.31,123.05c-4.39,19.49-13.44,62.26-12,82,2.25,30,30.26,63.26,54.69,67.63,28.28,2.88,66.41-5.54,87.1-23.33,11.52-13.5,33.82-45.52,44.08-73.56C522.63,117.28,481.31,66,428.89,54.16S341,62.31,327.31,123.05Z"/><path class="cls-34" d="M483.66,214.38c10.94-19.24-3.59-27-19.51-12.1,2.72-14.51,19.27-57.05,4.61-71.16-16.56-16.36-89.43-9.24-128.57-50.06,0,0,29.18-64,124.94-26.19C573.3,112.22,483.66,214.38,483.66,214.38Z"/><ellipse class="cls-32" cx="484.32" cy="207.69" rx="23.61" ry="18.35" transform="translate(15.06 447.47) rotate(-50.28)"/><path class="cls-30" d="M355.47,295.66c9.57,17.09,108,8.2,116.94-6.16l5.48,54.71-91.65,52-47.87-52.66Z"/><path class="cls-31" d="M517.31,114.1c-2.7-47.89-95.39-115.47-161.88-90.38-44.84,16.92-34.32,64.52,4.72,73.51C394.59,105.16,490,63.89,517.31,114.1Z"/><path class="cls-31" d="M347.16,23.87s2-13.66,9.34-23.87c-52,34.08-26.13,74.83-25.52,76.57C351.61,13.92,400.84,16.8,418.32,17,373.35-4.15,347.61,22,347.16,23.87Z"/><path class="cls-11" d="M203.1,755.58c75.51,32.57,250,25.4,302.09.45l13.34,44.16c-113.43,26.74-221.95,27.49-325-.84Z"/><path class="cls-30" d="M708.39,652c-49.95,53.54-155.32,114.6-155.32,114.6L520.74,720.1c33.53-18.48,52-66.38,84-99.22,10.95-11.29,23.44-20.7,38.49-26.86-51-13.17-76.64-25.83-119.06-103.32C464.8,486.6,452,408.94,484.3,380c24.29-21.73,85.53-44.48,130.35,27,80.06,45,114.27,143.17,118.55,193.12C737.13,614.38,726.35,632.68,708.39,652Z"/><path class="cls-31" d="M549.73,695.74s-36.65-3.35-49.31,4.1c-10.59,6.23-6.86,17.16-6.86,17.16-21.42,7.3-9.89,53.18,22,69.91S581.52,744,581.52,744,583.55,704.38,549.73,695.74Z"/><path class="cls-31" d="M708.39,652c-3.08,3.24-6.33,6.66-9.75,9.91-52.68,51-145.57,104.69-145.57,104.69L520.74,720.1c28.91-15.91,46.53-53.55,71.33-84.68a172.32,172.32,0,0,1,12.66-14.54C617.22,628.24,654.51,647.91,708.39,652Z"/><path class="cls-11" d="M708.39,652c-3.08,3.24-6.33,6.66-9.75,9.91-45.16-2.22-87.58-18.47-106.57-26.51a172.32,172.32,0,0,1,12.66-14.54C617.22,628.24,654.51,647.91,708.39,652Z"/><path class="cls-35" d="M415.05,452.54h0l0-.26Z"/><path class="cls-35" d="M415.05,452.54h0l0-.26Z"/><path class="cls-35" d="M324.63,439.57s0-.23,0-.26l0,.26Z"/><path class="cls-35" d="M324.63,439.57s0-.23,0-.26l0,.26Z"/><path class="cls-11" d="M343.48,328.92c4.91,12.62,21.3,23.74,39.78,34.58,37.53-6.14,66.32-17.76,94.48-34.24,27.71-.13,47.65,10.53,68.15,18.4L382.28,374.29,286.17,338C299,333.35,317.25,330.2,343.48,328.92Z"/><path class="cls-35" d="M905.61,668.47h0c0-.8,0-1.16,0-1.24C905.6,667.38,905.61,668.47,905.61,668.47Z"/><path class="cls-35" d="M905.61,668.47h0c0-.8,0-1.16,0-1.24C905.6,667.38,905.61,668.47,905.61,668.47Z"/><path class="cls-35" d="M422.89,673.79s0-1.1,0-1.24c0,.08,0,.43,0,1.24Z"/><path class="cls-35" d="M422.89,673.79s0-1.1,0-1.24c0,.08,0,.43,0,1.24Z"/><path class="cls-3" d="M662.39,540.24C719,599.85,809.13,648.42,905.33,668.74c.07,6.38.46,41.76,2.28,204.83,2.41,217.53-204.87,325.2-237.05,341.72-31.38-14.13-242.69-118.88-245.11-336.41-1.81-163.07-2.2-198.45-2.28-204.83C518.89,651.62,607.08,601.09,662.39,540.24Z"/><path class="cls-36" d="M663.23,579.55c55.42,49.94,132,89,216.07,110l2,184.31c.94,84.33-32.21,160.84-98.54,227.42A478.23,478.23,0,0,1,670,1184.54l-3.21-1.62-4-602.93C662.91,579.84,663.08,579.7,663.23,579.55Z"/><path class="cls-37" d="M662.75,580l4,602.93a479.27,479.27,0,0,1-111.46-79.15c-67.79-65.1-102.63-140.87-103.57-225.2l-2-184.31C533,671.48,608.49,630.93,662.75,580Z"/><path class="cls-3" d="M567,846.28l.94,142.79c.11,15.9,195.13,14.62,195-1.28L762,845Zm73.78,53.42a24.09,24.09,0,1,1,34.1,21.61l.27,40.56a9.87,9.87,0,1,1-19.73.13l-.27-40.47A23.89,23.89,0,0,1,640.78,899.7Z"/><path class="cls-3" d="M584,836l19.74-.12-.06-9.62a60.7,60.7,0,0,1,121.39-.8l.06,9.62,19.74-.13-.06-9.62c-.29-44.15-36.62-79.83-81-79.54s-80.19,36.45-79.9,80.6Z"/></g><g id="BG"><path class="cls-38" d="M335.12,573.92l75.63-130.54c38,22,49.38,65.75,29.21,102.82C420.68,581.61,370.35,597.35,335.12,573.92Z"/><path class="cls-39" d="M331.65,544.33C295.1,523.88,282.38,480.46,301.13,444c19.46-37.86,64-51.54,106-30.77C382.68,457.46,357.13,500.87,331.65,544.33Z"/></g></g></g></svg>