<?xml version="1.0" encoding="utf-8"?>
<!-- Generator: Adobe Illustrator 25.0.0, SVG Export Plug-In . SVG Version: 6.00 Build 0)  -->
<svg version="1.1" id="Layer_1" xmlns="http://www.w3.org/2000/svg" xmlns:xlink="http://www.w3.org/1999/xlink" x="0px" y="0px"
	 viewBox="0 0 384 469.3" style="enable-background:new 0 0 384 469.3;" xml:space="preserve">
<style type="text/css">
	.st0{fill:#FFFFFF;}
</style>
<g>
	<g>
		<path class="st0" d="M370.3,338.2C358,320,341.3,295,341.3,224v-32c0-67.5-45.1-124.6-106.7-143v-6.3C234.7,19.1,215.5,0,192,0
			s-42.7,19.1-42.7,42.7V49C87.7,67.4,42.7,124.5,42.7,192v32c0,71-16.7,96-28.9,114.2C6.7,348.7,0,358.7,0,373.3
			c0,34.8,72.5,47,131.3,51.2c8.2,26.4,32.4,44.8,60.7,44.8s52.5-18.4,60.7-44.8c58.8-4.2,131.3-16.4,131.3-51.2
			C384,358.7,377.3,348.7,370.3,338.2z M170.7,42.7c0-11.8,9.6-21.3,21.3-21.3s21.3,9.6,21.3,21.3v1.7c-7-1-14.1-1.7-21.3-1.7
			s-14.3,0.7-21.3,1.7L170.7,42.7L170.7,42.7z M192,448c-15.9,0-29.9-8.8-37.2-22.1c15.1,0.6,28.2,0.8,37.2,0.8
			c9,0,22.1-0.2,37.2-0.8C221.9,439.2,207.9,448,192,448z M192,405.3c-97.7,0-170.7-16.9-170.7-32c0-7.8,3.3-13.1,10.1-23.3
			C44.4,330.7,64,301.5,64,224v-32c0-70.6,57.4-128,128-128s128,57.4,128,128v32c0,77.5,19.6,106.7,32.5,126.1
			c6.9,10.2,10.1,15.5,10.1,23.3C362.7,388.4,289.7,405.3,192,405.3z"/>
	</g>
</g>
</svg>
