<?xml version="1.0" encoding="utf-8"?>
<!-- Generator: Adobe Illustrator 25.0.0, SVG Export Plug-In . SVG Version: 6.00 Build 0)  -->
<svg version="1.1" id="Layer_1" xmlns="http://www.w3.org/2000/svg" xmlns:xlink="http://www.w3.org/1999/xlink" x="0px" y="0px"
	 viewBox="0 0 379.8 512" style="enable-background:new 0 0 379.8 512;" xml:space="preserve">
<style type="text/css">
	.st0{fill:#FFFFFF;}
</style>
<path class="st0" d="M343,105c-2.6-2.2-3.6-5.7-2.6-8.9l8.6-28.7c4.6-15.1-4.3-30.9-19.6-34.7c-14.3-3.6-28.8,5.3-33.1,19.4
	L291,69.5c-1.4,4.5-6.2,7-10.6,5.7l-36.2-11c-4.5-1.4-7-6.2-5.7-10.6l5.5-18c4.6-15.1-4.3-30.9-19.6-34.7
	c-14.3-3.6-28.8,5.3-33.1,19.4l-5.3,17.3c-1.4,4.5-6.2,7-10.6,5.7L131,29.8c-15.1-4.6-30.9,4.3-34.7,19.6
	c-3.6,14.3,5.3,28.8,19.4,33.1l17.3,5.3c4.5,1.4,7,6.2,5.7,10.6l-37.3,123.3L64.2,345.1c-1.4,4.5-6.2,7-10.6,5.7l-18-5.5
	c-15.1-4.6-30.9,4.3-34.7,19.6c-3.6,14.3,5.3,28.8,19.4,33.1l43.6,13.2c4.5,1.4,7,6.2,5.7,10.6l-5.5,18
	c-4.6,15.1,4.3,30.9,19.6,34.7c14.3,3.6,28.8-5.3,33.1-19.4l5.3-17.3c1.4-4.5,6.2-7,10.6-5.7l36.2,11c4.5,1.4,7,6.2,5.7,10.6
	l-5.5,18c-4.6,15.1,4.3,30.9,19.6,34.7c14.3,3.6,28.8-5.3,33.1-19.4l8.4-27.8c1-3.3,3.8-5.5,7-6c41-5.8,77.1-34.7,89.8-76.9
	c8.6-28.3,5-57.7-7.2-81.7c-2.2-4.1-0.7-9.3,3.4-11.5c24.2-13.4,43.3-35.9,51.9-64.2C387.8,176.6,373.9,132.7,343,105z M274,361.4
	c-9.1,28.3-39.5,44.5-68.2,35.7L122,371.7c-4.5-1.4-7-6.2-5.7-10.6l27-88.8c1.4-4.5,6.2-7,10.6-5.7l82.8,25.1
	C266.1,300.4,283.6,332,274,361.4z M321.9,203.6c-9.1,28.3-39.5,44.5-68.2,35.7l-83.8-25.4c-4.5-1.4-7-6.2-5.7-10.6l26.8-88.8
	c1.4-4.5,6.2-7,10.6-5.7l82.8,25.1C313.8,142.8,331.2,174.2,321.9,203.6z"/>
</svg>
