<?xml version="1.0" encoding="utf-8"?>
<!-- Generator: Adobe Illustrator 25.0.0, SVG Export Plug-In . SVG Version: 6.00 Build 0)  -->
<svg version="1.1" id="Layer_1" xmlns="http://www.w3.org/2000/svg" xmlns:xlink="http://www.w3.org/1999/xlink" x="0px" y="0px"
	 viewBox="0 0 512 512" style="enable-background:new 0 0 512 512;" xml:space="preserve">
<style type="text/css">
	.st0{fill:#F5AE6F;}
	.st1{fill:#FFFFFF;}
</style>
<g>
	<path class="st0" d="M481.7,135.1C449.4,74.8,395.5,30.7,330.1,11s-134.7-13-195,19.3S30.7,116.5,11,181.9s-13,134.7,19.3,195
		S116.5,481.3,181.9,501c65.5,19.8,134.7,12.9,195-19.4S481.3,395.5,501,330.1C520.8,264.6,514,195.4,481.7,135.1L481.7,135.1z"/>
	<path class="st1" d="M318.7,325.1c-7.4,24.6-28.4,41.4-52.3,44.8c-1.9,0.3-3.5,1.6-4.1,3.5l-4.9,16.2c-2.5,8.2-11,13.4-19.3,11.3
		c-8.9-2.2-14.1-11.4-11.4-20.2l3.2-10.5c0.8-2.6-0.7-5.4-3.3-6.2l-21.1-6.4c-2.6-0.8-5.4,0.7-6.2,3.3l-3.1,10.1
		c-2.5,8.2-11,13.4-19.3,11.3c-8.9-2.2-14.1-11.4-11.4-20.2l3.2-10.5c0.8-2.6-0.7-5.4-3.3-6.2l-25.4-7.7c-8.2-2.5-13.4-11-11.3-19.3
		c2.2-8.9,11.4-14.1,20.2-11.4l10.5,3.2c2.6,0.8,5.4-0.7,6.2-3.3l21.7-71.8l21.7-71.8c0.8-2.6-0.7-5.4-3.3-6.2l-10.1-3.1
		c-8.2-2.5-13.4-11-11.3-19.3c2.2-8.9,11.4-14.1,20.2-11.4l25.8,7.8c2.6,0.8,5.4-0.7,6.2-3.3l3.1-10.1c2.5-8.2,11-13.4,19.3-11.3
		c8.9,2.2,14.1,11.4,11.4,20.2l-3.2,10.5c-0.8,2.6,0.7,5.4,3.3,6.2l21.1,6.4c2.6,0.8,5.4-0.7,6.2-3.3l3.1-10.1
		c2.5-8.2,11-13.4,19.3-11.3c8.9,2.2,14.1,11.4,11.4,20.2l-5,16.7c-0.6,1.9,0,3.9,1.5,5.2c18,16.1,26.1,41.7,18.7,66.3
		c-5,16.5-16.1,29.6-30.2,37.4c-2.4,1.3-3.3,4.3-2,6.7C321.6,291.5,323.7,308.6,318.7,325.1L318.7,325.1z"/>
	<path class="st0" d="M293.9,183.9l-48.2-14.6c-2.6-0.8-5.4,0.7-6.2,3.3l-15.6,51.7c-0.8,2.6,0.7,5.4,3.3,6.2l48.8,14.8
		c16.7,5.1,34.4-4.3,39.7-20.8C321.1,207.4,311,189.1,293.9,183.9z"/>
	<path class="st0" d="M266.1,275.8l-48.2-14.6c-2.6-0.8-5.4,0.7-6.2,3.3L196,316.2c-0.8,2.6,0.7,5.4,3.3,6.2l48.8,14.8
		c16.7,5.1,34.4-4.3,39.7-20.8C293.4,299.3,283.2,280.9,266.1,275.8z"/>
</g>
</svg>
