<?xml version="1.0" encoding="utf-8"?>
<!-- Generator: Adobe Illustrator 25.0.0, SVG Export Plug-In . SVG Version: 6.00 Build 0)  -->
<svg version="1.1" id="Layer_1" xmlns="http://www.w3.org/2000/svg" xmlns:xlink="http://www.w3.org/1999/xlink" x="0px" y="0px"
	 viewBox="0 0 512 512" style="enable-background:new 0 0 512 512;" xml:space="preserve">
<style type="text/css">
	.st0{fill:#FFFFFF;}
</style>
<g>
	<g>
		<path class="st0" d="M256,13c32.8,0,64.6,6.4,94.6,19.1c28.9,12.2,54.9,29.8,77.2,52.1c22.3,22.3,39.8,48.3,52.1,77.2
			c12.7,29.9,19.1,61.8,19.1,94.6s-6.4,64.6-19.1,94.6c-12.2,28.9-29.8,54.9-52.1,77.2c-22.3,22.3-48.3,39.8-77.2,52.1
			C320.6,492.6,288.8,499,256,499s-64.6-6.4-94.6-19.1c-28.9-12.2-54.9-29.8-77.2-52.1c-22.3-22.3-39.8-48.3-52.1-77.2
			C19.4,320.6,13,288.8,13,256s6.4-64.6,19.1-94.6c12.2-28.9,29.8-54.9,52.1-77.2c22.3-22.3,48.3-39.8,77.2-52.1
			C191.4,19.4,223.2,13,256,13 M256,0C114.6,0,0,114.6,0,256s114.6,256,256,256s256-114.6,256-256S397.4,0,256,0L256,0z"/>
	</g>
	<g>
		<polygon class="st0" points="368.9,406.6 167.3,406.6 210.9,275.9 145.3,286 140.7,256.2 221.6,243.8 264.3,115.8 292.9,125.3 
			255.1,238.7 336.5,226.2 341.1,256 244.4,270.9 209.1,376.7 368.9,376.7 		"/>
	</g>
</g>
</svg>
