<?xml version="1.0" encoding="utf-8"?>
<!-- Generator: Adobe Illustrator 25.0.0, SVG Export Plug-In . SVG Version: 6.00 Build 0)  -->
<svg version="1.1" id="Layer_1" xmlns="http://www.w3.org/2000/svg" xmlns:xlink="http://www.w3.org/1999/xlink" x="0px" y="0px"
	 viewBox="0 0 512 512" style="enable-background:new 0 0 512 512;" xml:space="preserve">
<style type="text/css">
	.st0{fill:#A9A5AF;}
</style>
<path class="st0" d="M392,512H120C53.8,512,0,458.2,0,392V272c-0.8-46.3,33.7-89.4,79-98v-54C79,53.8,132.8,0,199,0h193
	c66.2,0,120,53.8,120,120v272C512,458.2,458.2,512,392,512z M79,215.4c-23,8.2-39,30.1-39,56.6v120c0,44.1,35.9,80,80,80h272
	c44.1,0,80-35.9,80-80V120c0-44.1-35.9-80-80-80H199c-44.1,0-80,35.9-80,80v276c-1.1,26.5-39,26.5-40,0V215.4z M432,129
	c0-11-9-20-20-20H179c-26.5,1.1-26.5,39,0,40h233C423,149,432,140,432,129z M433,316c0-11-9-20-20-20h-78c-26.5,1.1-26.5,39,0,40h78
	C424,336,433,327,433,316z M276,316c0-11-9-20-20-20h-77c-26.5,1.1-26.5,39,0,40h77C267.1,336,276,327,276,316z M276,396
	c0-11-9-20-20-20h-77c-26.5,1.1-26.5,39,0,40h77C267.1,416,276,407,276,396z M392,396c0-11-9-20-20-20h-37c-26.5,1.1-26.5,39,0,40
	h37C383,416,392,407,392,396z M413,256H268c-26.5-1.1-26.5-39,0-40h145C439.5,217.1,439.5,255,413,256z M159,234
	c0,13.8,11.2,25,25,25c33.2-1.3,33.2-48.7,0-50C170.2,209,159,220.2,159,234z"/>
</svg>
