<?xml version="1.0" encoding="utf-8"?>
<!-- Generator: Adobe Illustrator 25.0.0, SVG Export Plug-In . SVG Version: 6.00 Build 0)  -->
<svg version="1.1" id="Layer_1" xmlns="http://www.w3.org/2000/svg" xmlns:xlink="http://www.w3.org/1999/xlink" x="0px" y="0px"
	 viewBox="0 0 512 512" style="enable-background:new 0 0 512 512;" xml:space="preserve">
<style type="text/css">
	.st0{fill:#A9A5AF;}
</style>
<path class="st0" d="M255.9,512c-33.1,0-60-26.9-60-60v-0.5c0-7.1-4.3-13.4-11-16.1c-18.3-7.2-35.4-17.1-50.8-29.6
	c-5.7-4.6-13.3-5.3-19.5-1.7c0,0-0.1,0.1-0.1,0.1c-28.8,16.2-65.6,6.1-81.9-22.7c-7.9-13.9-9.9-30.1-5.6-45.5
	c4.3-15.5,14.4-28.3,28.4-36.2l0.2-0.1c6.1-3.5,9.5-10.3,8.6-17.1c-2.5-18.2-2.5-36.9,0.2-55.1c1-6.9-2.5-13.9-8.7-17.4l-0.3-0.2
	c-13.9-7.9-24-20.7-28.3-36.2c-4.3-15.4-2.3-31.6,5.6-45.5c16.3-28.7,53.1-38.9,81.9-22.7l1.2,0.7c6.2,3.5,13.8,2.8,19.5-1.7
	c15.1-12,31.8-21.6,49.6-28.7c6.7-2.6,11.1-9,11.1-16.1c3.3-79.7,116.8-79.6,120.1,0v0.4c0,7.1,4.3,13.4,11,16.1
	c17.7,7,34.2,16.7,49.1,28.6c5.7,4.6,13.4,5.3,19.5,1.8l1.8-1c28.9-16.3,65.6-6.1,81.9,22.6c7.9,13.9,9.9,30.1,5.6,45.5
	c-4.3,15.5-14.4,28.3-28.4,36.2l-1.4,0.8c-6.1,3.5-9.6,10.3-8.6,17.1c2.6,17.9,2.7,36.3,0.2,54.2c-0.9,6.8,2.5,13.6,8.6,17.1
	l1.2,0.7c14,7.9,24.1,20.7,28.3,36.2c14.4,51.1-41.4,94.3-87.5,68.2l-0.7-0.4c-6.2-3.5-13.9-2.8-19.6,1.8
	c-15.2,12.3-32.1,22.2-50.1,29.4c-6.6,2.6-10.9,8.9-10.9,16v0.9C316,485.1,289.1,512,255.9,512L255.9,512z M123.1,361.8
	c12.8,0,25.6,4.4,36.2,12.9c12.2,9.8,25.7,17.7,40.2,23.4c22.1,8.7,36.4,29.6,36.4,53.3v0.5c1.1,26.6,38.9,26.5,40,0v-0.9
	c0-23.6,14.2-44.5,36.1-53.2c14.3-5.7,27.7-13.6,39.7-23.3c18.6-15.1,44-17.3,64.6-5.6l0.6,0.4c9.6,5.4,21.9,2,27.4-7.6
	c2.6-4.6,3.3-10,1.9-15.1c-1.4-5.1-4.8-9.4-9.5-12c0,0,0,0-0.1,0l-1.2-0.7c-20.5-11.6-31.6-34.1-28.5-57.3
	c1.9-14.2,1.9-28.9-0.2-43.1c-3.3-22.9,8.1-46.1,28.4-57.6l1.4-0.8c4.7-2.7,8.1-6.9,9.5-12.1c1.4-5.1,0.8-10.5-1.9-15.1
	c-5.5-9.6-17.8-13-27.4-7.6l-1.7,1c-20.5,11.6-45.7,9.5-64.3-5.3c-11.8-9.5-24.9-17.1-38.9-22.7c-22-8.8-36.2-29.7-36.2-53.2v-0.4
	c-1.1-26.5-38.9-26.5-40,0c0,23.7-14.3,44.6-36.5,53.3c-14.1,5.6-27.4,13.2-39.3,22.7c-18.6,14.8-43.8,16.8-64.2,5.2l-1.1-0.6
	c-9.6-5.4-21.9-2-27.4,7.6c-2.6,4.6-3.3,10-1.9,15.1c1.4,5.1,4.8,9.4,9.5,12l0.4,0.2c20.5,11.6,31.9,34.9,28.6,58
	c-2.1,14.4-2.2,29.3-0.1,43.7c3.2,23.2-7.9,45.8-28.5,57.4l-0.3,0.2c-4.7,2.7-8.1,6.9-9.5,12.1c-1.4,5.1-0.8,10.5,1.9,15.1
	c5.5,9.6,17.8,13,27.4,7.6C103.7,364.3,113.4,361.8,123.1,361.8L123.1,361.8z M255.9,360.9c-57.9,0-105.1-47.1-105.1-105.1
	c5.8-139.4,204.4-139.3,210.1,0C361,313.8,313.9,360.9,255.9,360.9L255.9,360.9z M255.9,190.8c-35.9,0-65,29.2-65,65
	c3.6,86.3,126.5,86.3,130.1,0C321,220,291.8,190.8,255.9,190.8L255.9,190.8z"/>
</svg>
