<?xml version="1.0" encoding="utf-8"?>
<!-- Generator: Adobe Illustrator 25.0.0, SVG Export Plug-In . SVG Version: 6.00 Build 0)  -->
<svg version="1.1" id="Layer_1" xmlns="http://www.w3.org/2000/svg" xmlns:xlink="http://www.w3.org/1999/xlink" x="0px" y="0px"
	 viewBox="0 0 50 50" style="enable-background:new 0 0 50 50;" xml:space="preserve">
<style type="text/css">
	.st0{fill:#50E393;}
</style>
<g>
	<g>
		<g>
			<path class="st0" d="M22.8,10l-9,10c-1.1,1.2-1,3.1,0.2,4.2c1.2,1.1,3.1,1,4.2-0.2l3.8-4.2V38c0,1.7,1.3,3,3,3c1.7,0,3-1.3,3-3
				V19.8l3.8,4.2c1.1,1.2,3,1.3,4.2,0.2c0.7-0.6,1-1.4,1-2.2c0-0.7-0.3-1.4-0.8-2l-9-10c-0.6-0.6-1.4-1-2.2-1
				C24.2,9,23.3,9.4,22.8,10z"/>
		</g>
	</g>
	<g>
		<path class="st0" d="M42,5c1.7,0,3,1.3,3,3v34c0,1.7-1.3,3-3,3H8c-1.7,0-3-1.3-3-3V8c0-1.7,1.3-3,3-3H42 M42,0H8C3.6,0,0,3.6,0,8
			v34c0,4.4,3.6,8,8,8h34c4.4,0,8-3.6,8-8V8C50,3.6,46.4,0,42,0L42,0z"/>
	</g>
</g>
</svg>
