<?xml version="1.0" encoding="utf-8"?>
<!-- Generator: Adobe Illustrator 25.0.0, SVG Export Plug-In . SVG Version: 6.00 Build 0)  -->
<svg version="1.1" id="Layer_1" xmlns="http://www.w3.org/2000/svg" xmlns:xlink="http://www.w3.org/1999/xlink" x="0px" y="0px"
	 viewBox="0 0 512 512" style="enable-background:new 0 0 512 512;" xml:space="preserve">
<style type="text/css">
	.st0{fill:#A9A5AF;}
</style>
<path class="st0" d="M386.7,166.1c-10.5,3.5-21.8-2.2-25.3-12.7C339.1,85.6,276.2,40,204.7,40C34,41.8-23,267.5,126.2,350.2
	c18.2,10.1,11,37.5-9.6,37.6c-3.2,0-6.5-0.8-9.5-2.4C-78.3,282.5-7.4,2.2,204.7,0c86.7-1.1,168.6,58.3,194.7,140.8
	C402.9,151.3,397.2,162.6,386.7,166.1L386.7,166.1z M261.7,235c0-13.6-6.1-26.8-16.6-36.2c-10.1-8.9-23.3-13.8-37.4-13.8
	c-9.7,0-17-4.3-17-10c0-5.5,4.5-10,10-10c7.1,0,15.7,0.8,30.8,6.6c10.3,4,21.9-1.1,25.9-11.4c4-10.3-1.1-21.9-11.4-25.9
	c-6.4-2.5-12.1-4.3-17.2-5.7V124c-1.1-26.5-39-26.5-40,0v2.5c-59.1,17.9-46.6,98.7,19,98.5c7.6,0,14,4.6,14,10s-4.8,10-10.5,10
	c-4.2,0-18.5-1.4-34.1-7.6c-10.3-4.1-21.9,0.9-26,11.2c-4.1,10.3,0.9,21.9,11.2,26c9.1,3.6,18.2,6.2,26.4,7.8v2.6
	c1.1,26.5,39,26.5,40,0v-3.1C248,274.8,261.7,256.5,261.7,235z M491.7,378c-11,0-20,9-20,20v94c1.1,26.5,39,26.5,40,0v-94
	C511.7,387,502.8,378,491.7,378z M411.7,401c-11,0-20,9-20,20v71c1.1,26.5,39,26.5,40,0v-71C431.7,410,422.8,401,411.7,401z
	 M331.7,445c-11,0-20,9-20,20v27c1.1,26.5,39,26.5,40,0v-27C351.7,454,342.8,445,331.7,445z M251.7,428c-11,0-20,9-20,20v44
	c1.1,26.5,39,26.5,40,0v-44C271.7,437,262.8,428,251.7,428z M101.3,512c-17.6,0.1-26.8-21.7-14.1-34.2l116-115.2
	c0.2-0.2,0.5-0.5,0.7-0.7c25.3-22.8,63.1-24.1,89.9-3.1l1.7,1.2c0.2,0.1,0.4,0.3,0.6,0.5c12.4,9.8,30.3,8.3,40.9-3.5
	c0.1-0.1,0.2-0.2,0.3-0.3l70.9-75.4c7.6-8.1,20.2-8.4,28.3-0.9c8.1,7.6,8.4,20.2,0.9,28.3L366.6,384c-24.6,27.1-66.2,30.7-95,8.2
	l-1.7-1.2c-0.2-0.1-0.4-0.3-0.6-0.5c-11.4-9-27.4-8.6-38.3,0.9L115.4,506.2C111.5,510.1,106.4,512,101.3,512L101.3,512z M511.7,318
	v-54c0-33.1-26.9-60-60-60h-54c-26.5,1.1-26.5,39,0,40h54c11,0,20,9,20,20v54c0,11,9,20,20,20C502.8,338,511.7,329.1,511.7,318z"/>
</svg>
